<svg width="175" height="54" viewBox="0 0 175 54" fill="none" xmlns="http://www.w3.org/2000/svg">
<path d="M0 48.8557V10.7069H12.1763L28.2197 42.6891H29.9442L28.899 43.6298V10.7069H35.9017V48.8557H23.6732L7.62976 16.8734H5.85296L6.89814 15.9327V48.8557H0Z" fill="#1876D2"/>
<path d="M55.7697 49.8486C53.2613 49.8486 51.049 49.4479 49.1329 48.6466C47.2167 47.8453 45.5967 46.7653 44.2728 45.4066C42.949 44.013 41.9386 42.4453 41.2418 40.7033C40.5799 38.9614 40.2489 37.1497 40.2489 35.2684V34.171C40.2489 32.22 40.5973 30.3735 41.2941 28.6316C42.0257 26.8548 43.0535 25.287 44.3774 23.9283C45.7361 22.5347 47.3735 21.4547 49.2897 20.6883C51.2058 19.887 53.3658 19.4863 55.7697 19.4863C58.1736 19.4863 60.3337 19.887 62.2498 20.6883C64.166 21.4547 65.786 22.5347 67.1099 23.9283C68.4686 25.287 69.4963 26.8548 70.1931 28.6316C70.8899 30.3735 71.2383 32.22 71.2383 34.171V35.2684C71.2383 37.1497 70.8899 38.9614 70.1931 40.7033C69.5312 42.4453 68.5383 44.013 67.2144 45.4066C65.8905 46.7653 64.2705 47.8453 62.3543 48.6466C60.4382 49.4479 58.2433 49.8486 55.7697 49.8486ZM55.7697 43.6298C57.5465 43.6298 59.0446 43.2466 60.264 42.4801C61.4833 41.6788 62.4066 40.6162 63.0337 39.2923C63.6608 37.9336 63.9743 36.4007 63.9743 34.6936C63.9743 32.9516 63.6434 31.4187 62.9814 30.0948C62.3543 28.7361 61.4137 27.6735 60.1595 26.907C58.9401 26.1057 57.4769 25.7051 55.7697 25.7051C54.0626 25.7051 52.582 26.1057 51.3278 26.907C50.1084 27.6735 49.1677 28.7361 48.5058 30.0948C47.8438 31.4187 47.5129 32.9516 47.5129 34.6936C47.5129 36.4007 47.8264 37.9336 48.4535 39.2923C49.1155 40.6162 50.0561 41.6788 51.2755 42.4801C52.4949 43.2466 53.9929 43.6298 55.7697 43.6298Z" fill="#1876D2"/>
<path d="M74.9858 48.8557V20.4792H80.7342V25.5352C80.7342 24.2941 81.1968 23.2489 82.6992 21.8771C84.4972 20.2355 87.493 20.4792 90.8724 20.4792H91.9176V25.8096H89.9318C87.493 25.8096 85.5943 27.0986 84.2356 28.4225C82.9117 29.7116 82.2497 31.5929 82.2497 34.0665V48.8557H74.9858Z" fill="#1876D2"/>
<path d="M109.723 49.2215C107.11 49.2215 104.95 48.8905 103.243 48.2285C101.57 47.5318 100.316 46.3821 99.48 44.7795C98.6438 43.142 98.2258 40.9472 98.2258 38.1949L98.278 12.4837H105.072L105.019 38.6652C105.019 40.0588 105.385 41.1388 106.117 41.9053C106.883 42.6369 107.963 43.0027 109.357 43.0027H113.799V49.2215H109.723ZM93.7315 25.8096V20.4792H113.799V25.8096H93.7315Z" fill="#1876D2"/>
<path d="M129.563 49.7441C126.289 49.7441 123.745 48.664 121.934 46.504C120.157 44.344 119.268 41.1388 119.268 36.8884V20.427H126.532V37.5155C126.532 39.2575 127.02 40.6511 127.996 41.6962C128.971 42.7066 130.295 43.2117 131.967 43.2117C133.64 43.2117 134.998 42.6717 136.043 41.5917C137.123 40.5117 137.663 39.0485 137.663 37.202V20.427H144.927V49.7441H139.179V41.8661C139.152 42.6499 139.911 43.8889 139.179 45.8051C138.447 47.7212 137.571 48.4637 136.043 49.1169C134.501 49.7049 132.072 49.7441 129.877 49.7441H129.563Z" fill="#1876D2"/>
<path d="M161.738 49.7441C157.836 49.7441 154.77 48.9253 152.54 47.2879C150.345 45.6156 149.195 43.3162 149.091 40.3898H155.623C155.728 41.3653 156.268 42.2536 157.243 43.0549C158.219 43.8562 159.752 44.2569 161.842 44.2569C163.584 44.2569 164.96 43.9433 165.97 43.3162C167.016 42.6891 167.538 41.8356 167.538 40.7556C167.538 39.8149 167.138 39.0659 166.336 38.5084C165.57 37.951 164.246 37.5852 162.365 37.411L159.856 37.1497C156.686 36.8013 154.247 35.8955 152.54 34.4323C150.833 32.969 149.979 31.018 149.979 28.5793C149.979 26.6283 150.467 24.9909 151.443 23.667C152.418 22.3431 153.759 21.3502 155.467 20.6883C157.208 19.9915 159.194 19.6431 161.424 19.6431C164.908 19.6431 167.73 20.4095 169.89 21.9425C172.05 23.4754 173.182 25.7225 173.287 28.6838H166.754C166.685 27.7083 166.197 26.8722 165.291 26.1754C164.385 25.4786 163.079 25.1302 161.372 25.1302C159.839 25.1302 158.654 25.4264 157.818 26.0186C156.982 26.6109 156.564 27.3774 156.564 28.318C156.564 29.2238 156.895 29.9206 157.557 30.4084C158.254 30.8961 159.368 31.2271 160.901 31.4013L163.41 31.6626C166.754 32.011 169.367 32.9342 171.249 34.4323C173.165 35.9304 174.123 37.951 174.123 40.4943C174.123 42.3756 173.6 44.013 172.555 45.4066C171.545 46.7653 170.116 47.8279 168.27 48.5944C166.423 49.3608 164.246 49.7441 161.738 49.7441Z" fill="#1876D2"/>
</svg>
